<svg id="svg" version="1.1" xmlns="http://www.w3.org/2000/svg"
    xmlns:xlink="http://www.w3.org/1999/xlink" width="400" height="400" viewBox="0, 0, 400,400">
    <path id="path0"
        d="M270.508 39.456 C 197.513 43.441,138.160 81.051,94.253 151.142 C 89.828 158.208,89.824 158.219,91.193 159.588 C 93.241 161.636,93.841 161.072,114.032 138.086 C 169.580 74.847,221.047 47.763,285.859 47.662 C 289.978 47.655,291.443 47.130,292.376 45.325 C 295.105 40.048,289.112 38.440,270.508 39.456 M286.328 63.545 C 256.146 64.895,230.661 73.027,201.172 90.719 C 193.342 95.417,192.319 96.631,194.518 98.621 C 195.785 99.768,196.700 99.485,205.859 95.116 C 245.827 76.053,284.192 70.381,327.344 77.155 C 334.665 78.305,336.339 78.014,337.715 75.352 C 339.087 72.699,338.038 70.325,334.990 69.185 C 324.474 65.251,303.237 62.789,286.328 63.545 M279.688 92.443 C 272.636 93.114,270.114 93.938,269.729 95.693 C 269.308 97.610,270.167 98.237,273.930 98.760 C 275.700 99.006,279.170 99.485,281.641 99.825 C 307.597 103.397,332.530 113.336,358.611 130.506 C 368.367 136.928,370.188 137.514,372.249 134.894 C 374.430 132.121,372.343 128.595,364.258 121.396 C 341.877 101.466,307.720 89.772,279.688 92.443 M215.234 109.231 C 159.758 113.149,124.271 164.300,145.894 209.180 C 164.417 247.625,217.646 266.004,256.360 247.322 C 290.121 231.030,307.358 192.893,296.109 159.375 C 285.704 128.370,250.787 106.721,215.234 109.231 M290.067 124.442 C 288.762 125.747,289.317 126.269,297.471 131.407 C 324.597 148.500,351.814 172.949,370.379 196.899 C 373.007 200.289,373.787 200.763,375.208 199.832 C 377.015 198.649,376.852 197.766,373.653 191.395 C 358.072 160.365,328.857 135.271,296.830 125.406 C 291.028 123.619,290.907 123.602,290.067 124.442 M227.550 141.224 C 255.769 146.145,270.021 178.235,254.830 202.649 C 244.300 219.573,221.979 226.493,203.174 218.664 C 192.517 214.227,181.937 201.992,179.436 191.211 C 172.758 162.425,198.106 136.089,227.550 141.224 M126.836 169.782 C 118.599 173.982,108.923 175.532,92.188 175.330 L 81.055 175.195 77.221 177.038 C 47.152 191.490,27.723 225.779,31.276 258.121 C 33.192 275.560,43.379 295.339,53.885 302.021 C 57.325 304.208,57.645 303.725,56.640 297.850 C 51.858 269.878,69.288 252.291,107.813 246.216 C 122.102 243.963,151.220 246.268,165.801 250.806 C 168.956 251.788,168.901 251.656,164.953 248.790 C 143.922 233.520,130.631 212.655,128.112 190.952 C 127.563 186.222,127.809 173.515,128.504 170.749 C 129.041 168.609,129.085 168.635,126.836 169.782 M110.569 196.387 C 111.755 197.505,112.665 199.099,114.414 203.125 C 115.675 206.025,117.606 210.229,118.705 212.465 C 121.357 217.864,121.328 218.311,118.418 216.827 C 114.026 214.586,105.276 206.563,103.775 203.401 C 101.302 198.189,106.637 192.680,110.569 196.387 M325.301 199.121 C 324.971 199.497,324.304 200.596,323.820 201.563 C 307.558 234.017,270.002 263.726,239.711 268.099 C 232.463 269.145,232.893 272.656,240.268 272.656 C 279.083 272.656,320.814 239.485,328.909 202.197 C 329.585 199.080,327.157 197.010,325.301 199.121 M335.921 233.913 C 329.309 238.539,320.902 244.647,319.824 245.606 C 318.074 247.164,319.298 249.609,321.827 249.609 C 332.314 249.609,350.874 234.252,345.195 230.274 C 343.412 229.026,342.258 229.479,335.921 233.913 M105.273 260.016 C 96.677 260.938,85.646 264.191,87.537 265.247 C 87.839 265.415,91.419 266.027,95.494 266.605 C 141.467 273.133,183.967 304.350,210.562 351.124 C 213.242 355.839,215.557 357.235,216.233 354.545 C 217.186 350.747,211.461 329.280,206.841 319.325 C 189.561 282.094,144.546 255.808,105.273 260.016 M187.652 272.494 C 187.320 273.819,187.406 273.886,194.327 277.736 C 221.202 292.682,245.980 313.596,265.598 337.895 C 269.770 343.063,271.248 343.959,272.791 342.254 C 273.743 341.203,273.585 339.455,272.231 336.045 C 260.781 307.210,230.212 281.894,195.898 272.829 C 189.560 271.154,188.004 271.091,187.652 272.494 M298.242 272.925 C 288.663 273.554,286.719 274.068,286.719 275.977 C 286.719 277.567,287.978 278.045,294.922 279.095 C 308.823 281.197,320.400 283.924,341.602 290.087 C 354.348 293.793,355.031 293.907,356.459 292.565 C 360.038 289.203,355.552 284.901,342.856 279.522 C 330.622 274.338,314.052 271.888,298.242 272.925 M254.900 287.836 C 254.457 289.231,255.197 289.828,262.631 294.077 C 283.709 306.126,299.019 317.181,315.324 332.129 C 320.715 337.071,321.796 337.579,323.438 335.938 C 327.535 331.840,312.163 314.235,295.107 303.489 C 281.188 294.720,255.847 284.854,254.900 287.836 "
        stroke="none" 
        fill="#e1b65a" 
        fill-rule="evenodd"></path>
</svg>